<svg xmlns="http://www.w3.org/2000/svg" viewBox="0 0 332.32 388.79"><g id="Layer_2" data-name="Layer 2"><g id="Layer_1-2" data-name="Layer 1"><path d="M233.48,388.79c-18.93,0-39.46-4.58-60.76-13.77C128.4,355.91,86,319.17,53.45,271.56S1.92,171.18.14,123,14,36.72,44.09,16.09s71.15-21.45,115.52-2.32,86.67,55.85,119.27,103.46,51.52,100.38,53.3,148.61-13.82,86.23-43.95,106.86C272.57,383.42,254,388.79,233.48,388.79ZM98.72.69c-20,0-38.54,5.1-54.3,15.89C14.47,37.09-1,74.86.73,122.93s20.67,100.78,53.2,148.3C104,344.32,175,388.1,233.61,388.1c20,0,38.54-5.1,54.29-15.89,61.88-42.37,57.62-156.6-9.51-254.65C228.35,44.47,157.28.69,98.72.69Z"/></g></g></svg>